<?xml version="1.0" encoding="utf-8"?>
<!-- Generator: Adobe Illustrator 16.0.0, SVG Export Plug-In . SVG Version: 6.00 Build 0)  -->
<!DOCTYPE svg PUBLIC "-//W3C//DTD SVG 1.1//EN" "http://www.w3.org/Graphics/SVG/1.1/DTD/svg11.dtd">
<svg version="1.1" xmlns="http://www.w3.org/2000/svg" xmlns:xlink="http://www.w3.org/1999/xlink" x="0px" y="0px" width="90px"
	 height="90px" viewBox="0 0 90 90" enable-background="new 0 0 90 90" xml:space="preserve">
<pattern  width="14.916" height="10" patternUnits="userSpaceOnUse" id="New_Pattern_Swatch_2" viewBox="1.458 -10 14.916 10" overflow="visible">
	<g>
		<polygon fill="none" points="1.458,-10 16.374,-10 16.374,0 1.458,0 		"/>
		<polygon fill="#E6E7E8" points="14.916,-0.542 14.916,-1.459 28.832,-1.458 28.832,-0.541 		"/>
		<polygon fill="#E6E7E8" points="0,-0.542 0,-1.459 13.916,-1.458 13.916,-0.541 		"/>
		<polygon fill="#E6E7E8" points="14.916,-2.542 14.916,-3.459 28.832,-3.458 28.832,-2.541 		"/>
		<polygon fill="#E6E7E8" points="0,-2.542 0,-3.459 13.916,-3.458 13.916,-2.541 		"/>
		<polygon fill="#E6E7E8" points="14.916,-4.542 14.916,-5.459 28.832,-5.458 28.832,-4.541 		"/>
		<polygon fill="#E6E7E8" points="0,-4.542 0,-5.459 13.916,-5.458 13.916,-4.541 		"/>
		<polygon fill="#E6E7E8" points="14.916,-6.542 14.916,-7.459 28.832,-7.458 28.832,-6.541 		"/>
		<polygon fill="#E6E7E8" points="0,-6.542 0,-7.459 13.916,-7.458 13.916,-6.541 		"/>
		<polygon fill="#E6E7E8" points="14.916,-8.542 14.916,-9.459 28.832,-9.458 28.832,-8.541 		"/>
		<polygon fill="#E6E7E8" points="0,-8.542 0,-9.459 13.916,-9.458 13.916,-8.541 		"/>
	</g>
</pattern>
<g id="Layer_1">
	<line fill="#FFFFFF" stroke="#000000" stroke-miterlimit="10" x1="45" y1="3.891" x2="45" y2="3.891"/>
	<path fill="#F7941E" d="M45,83.5c-3.5,3.416-4.833,2.333-4.833,2.333s-6.833-2-7.666-40.833S44.406,4.5,44.406,4.5
		S57.072,6.167,56.239,45s-7.666,40.833-7.666,40.833S47.24,86.916,43.74,83.5"/>
</g>
<g id="Layer_2">
	<path fill="#F15A29" d="M49.375,77.079c0,0,2.74-16.121-3.755-22.246c0,0,0.577,4.053,0.63,3.875l-0.63,2.125
		c0,0,3,6.691,1.19,15.283C45,84.708,45,84.708,45,84.708l0,0"/>
	<path fill="#F15A29" d="M39.377,77.079c0,0-2.74-16.121,3.755-22.246c0,0-0.577,4.053-0.63,3.875l0.63,2.125
		c0,0-3,6.691-1.19,15.283c1.811,8.592,1.811,8.592,1.811,8.592l0,0"/>
</g>
<g id="Layer_3">
	<rect x="44.828" y="4.542" fill="#FBB040" width="0.63" height="80.208"/>
	<rect x="43.25" y="4.708" fill="#FBB040" width="0.63" height="80.208"/>
</g>
<g id="Layer_4">
	<g id="Layer_5">
		<path fill="#D39D67" d="M47.559,38.971c0,0-0.918-3.121-3.148-3.547c-2.228-0.429-1.405,2.279-1.59,1.581
			c-0.185-0.701,2.016,4.073,3.376,3.018C47.559,38.971,47.559,38.971,47.559,38.971z"/>
		<path fill="#D39D67" d="M45.171,48.965c0,0-2.992,0.058-3.455,0.984c-0.462,0.925,1.106,2.707,1.106,2.707s2.99-1.24,3.266-1.742
			C46.365,50.411,45.171,48.965,45.171,48.965z"/>
		<path fill="#D2A87D" d="M51.026,39.6c0,0,2.541-4.358,2.229-5.828c-0.313-1.471-1.345-3.058-1.81-3.235
			c-0.467-0.178-1.144-2.056-1.319-3.104c-0.175-1.046-0.708,1.853-0.708,1.853l1.636,4.521l-0.92,5.009L51.026,39.6z"/>
		<path fill="#D2A87D" d="M50.778,50.804c0,0-0.319,6.164-6.719,6.666c-6.398,0.498,1.387-1.694,1.387-1.694
			S50.995,47.255,50.778,50.804z"/>
		<path opacity="0.9" fill="#2BB673" d="M49.275,51.882c0,0,1.893-0.123,2.754-1.568c0.863-1.447,0.771-5.803,0.771-5.803
			s0.664-4.861-0.707-6.095c-1.372-1.234-6.239-0.303-6.239-0.303s-2.49,3.145-1.245,1.573c1.245-1.573-0.591,1.727-0.591,1.727
			s-0.856,5.924-0.332,7.79c0.523,1.869,4.897,2.748,4.897,2.748L49.275,51.882z"/>
		<path opacity="0.9" fill="url(#New_Pattern_Swatch_2)" d="M49.275,51.882c0,0,1.893-0.123,2.754-1.568
			c0.863-1.447,0.771-5.803,0.771-5.803s0.664-4.861-0.707-6.095c-1.372-1.234-6.239-0.303-6.239-0.303s-2.49,3.145-1.245,1.573
			c1.245-1.573-0.591,1.727-0.591,1.727s-0.856,5.924-0.332,7.79c0.523,1.869,4.897,2.748,4.897,2.748L49.275,51.882z"/>
	</g>
	<g id="Layer_6">
		<path fill="#603913" d="M52.956,42.421l0.006,1.412l1.038,2l-2.65,0.417v1.584L50.798,48.5l-3.323-0.583l-1.345,1.048H45V46.25
			l0.5-2.083l-0.042-1.746l0.125-1.004l1.975-0.333c0,0,0.941-1.234,1.191-0.909s2.048,0.409,2.048,0.409l2.164,0.833L52.956,42.421
			z"/>
	</g>
</g>
</svg>
